<?xml version="1.0" standalone="no"?><!DOCTYPE svg PUBLIC "-//W3C//DTD SVG 1.1//EN" "http://www.w3.org/Graphics/SVG/1.1/DTD/svg11.dtd"><svg t="1598839132551" class="icon" viewBox="0 0 1362 1024" version="1.1" xmlns="http://www.w3.org/2000/svg" p-id="4475" xmlns:xlink="http://www.w3.org/1999/xlink" width="266.015625" height="200"><defs><style type="text/css"></style></defs><path d="M1080.842688 399.783427v-1.521477C1080.842688 178.332377 902.555955 0.03043 682.641598 0.03043a397.775077 397.775077 0 0 0-328.182696 172.611622c13.936734-1.278041 28.056045-1.962706 42.327504-1.962706a456.610612 456.610612 0 0 1 101.117394 11.289363 283.238251 283.238251 0 0 1 184.753013-68.192622c157.077337 0 284.425003 127.362881 284.425003 284.516292H724.999531a397.714218 397.714218 0 0 0-328.760857-170.72499c-218.697175 1.065034-396.497036 179.990788-396.238385 398.627105 0.213007 219.777424 178.438881 397.805506 398.216305 397.805506h339.913288A227.567389 227.567389 0 0 0 965.682057 796.447826V546.347355a14.225815 14.225815 0 0 0-24.34364-10.056967l-248.000832 248.000832a7.120515 7.120515 0 0 0 5.03609 12.17182h153.51708a113.776087 113.776087 0 0 1-113.760873 113.760873H400.650958c-156.712182 0-287.163663-128.230123-286.874582-284.957521s127.515029-283.922916 284.516292-283.922915a283.223036 283.223036 0 0 1 177.343417 62.121926A227.628248 227.628248 0 0 0 396.786406 625.783695v250.115685a14.225815 14.225815 0 0 0 24.34364 10.056967l248.000832-248.000832a7.1053 7.1053 0 0 0-5.020876-12.17182H510.562493a113.639154 113.639154 0 0 1 113.639154-113.776088h423.472832c110.246259 0 200.971963 88.762997 201.017607 199.009257a199.100545 199.100545 0 0 1-199.100545 199.207049h-51.730235a285.200957 285.200957 0 0 1-90.710489 113.776087h139.838997c172.398615 0 315.873943-141.040964 315.554433-313.424364-0.365155-162.022139-123.75698-295.136205-281.701559-310.792209z" fill="#ffffff" p-id="4476"></path></svg>